<svg width="37" height="37" viewBox="0 0 37 37" fill="none" xmlns="http://www.w3.org/2000/svg">
<path d="M35.9727 33.5513L24.5601 22.1387C26.3311 19.8491 27.2891 17.0498 27.2891 14.1055C27.2891 10.5811 25.9136 7.27637 23.4263 4.78467C20.939 2.29297 17.6255 0.921875 14.1055 0.921875C10.5855 0.921875 7.27197 2.29736 4.78467 4.78467C2.29297 7.27197 0.921875 10.5811 0.921875 14.1055C0.921875 17.6255 2.29736 20.939 4.78467 23.4263C7.27197 25.918 10.5811 27.2891 14.1055 27.2891C17.0498 27.2891 19.8447 26.3311 22.1343 24.5645L33.5469 35.9727C33.5803 36.0061 33.6201 36.0327 33.6638 36.0508C33.7075 36.069 33.7544 36.0783 33.8018 36.0783C33.8491 36.0783 33.896 36.069 33.9397 36.0508C33.9834 36.0327 34.0232 36.0061 34.0566 35.9727L35.9727 34.061C36.0061 34.0276 36.0327 33.9878 36.0508 33.9441C36.069 33.9004 36.0783 33.8535 36.0783 33.8062C36.0783 33.7588 36.069 33.7119 36.0508 33.6682C36.0327 33.6245 36.0061 33.5847 35.9727 33.5513V33.5513ZM21.0664 21.0664C19.2031 22.9253 16.7334 23.9492 14.1055 23.9492C11.4775 23.9492 9.00781 22.9253 7.14453 21.0664C5.28565 19.2031 4.26172 16.7334 4.26172 14.1055C4.26172 11.4775 5.28565 9.00342 7.14453 7.14453C9.00781 5.28565 11.4775 4.26172 14.1055 4.26172C16.7334 4.26172 19.2075 5.28125 21.0664 7.14453C22.9253 9.00781 23.9492 11.4775 23.9492 14.1055C23.9492 16.7334 22.9253 19.2075 21.0664 21.0664Z" fill="#F4F7F0"/>
</svg>
